<?xml version="1.0" encoding="UTF-8"?><!DOCTYPE svg PUBLIC "-//W3C//DTD SVG 1.1//EN" "http://www.w3.org/Graphics/SVG/1.1/DTD/svg11.dtd"><svg xmlns="http://www.w3.org/2000/svg" xmlns:xlink="http://www.w3.org/1999/xlink"><symbol id="checkbox-off" viewBox="0 0 39 39">
<rect x="1" y="1" width="37" height="37" rx="2" fill="white" stroke="#E5E5E5" stroke-width="2"/>
</symbol><symbol id="checkbox-on" viewBox="0 0 22 16">
<path d="M21.7001 0.284331C21.5105 0.102082 21.2557 0 20.9903 0C20.7249 0 20.47 0.102082 20.2805 0.284331L6.70324 13.6028L1.73472 8.72901C1.64045 8.63578 1.52831 8.56178 1.40474 8.51128C1.28118 8.46079 1.14865 8.43479 1.01479 8.43479C0.88093 8.43479 0.748397 8.46079 0.624833 8.51128C0.50127 8.56178 0.389122 8.63578 0.294859 8.72901C0.106004 8.91537 0 9.16747 0 9.43024C0 9.69302 0.106004 9.94512 0.294859 10.1315L5.98331 15.7115C6.07806 15.8037 6.19042 15.8767 6.31396 15.9262C6.4375 15.9756 6.56979 16.0007 6.70324 16C6.96925 15.9989 7.22416 15.8953 7.41303 15.7115L21.7001 1.69675C21.7951 1.60428 21.8705 1.49427 21.922 1.37306C21.9735 1.25186 22 1.12185 22 0.990541C22 0.859234 21.9735 0.729226 21.922 0.608017C21.8705 0.486809 21.7951 0.376798 21.7001 0.284331Z" fill="#D22856"/>
</symbol><symbol id="facebook" viewBox="0 0 9 18">
<path d="M6.50865 3.19324H9V0H6.02076C2.76125 0.171067 1.59862 2.27138 2.07612 5.81626H0V9.15206H2.07612V18H6.02076V9.15206H8.97924V5.81626H6.01038C5.98962 4.81837 5.96886 3.52587 6.50865 3.19324Z" fill="#D22856"/>
</symbol><symbol id="favicon" viewBox="0 0 16 16">
<rect width="16" height="16" rx="4" fill="#EEEEEE"/>
<path d="M13.9858 9.52944L12.961 5.31324C12.8897 4.84916 12.4457 4 11.2563 4C11.1775 4 11.1019 4.03121 11.0461 4.08676C10.9903 4.14231 10.959 4.21766 10.959 4.29622C10.959 4.37478 10.9903 4.45013 11.0461 4.50568C11.1019 4.56123 11.1775 4.59244 11.2563 4.59244C12.2177 4.59244 12.3604 5.32904 12.3743 5.41001L13.3178 9.30036H12.9035C12.8607 8.96099 12.7446 8.63489 12.5632 8.34445C12.3819 8.05401 12.1396 7.80613 11.853 7.61783C11.7632 7.65548 11.6866 7.71863 11.6327 7.79941C11.5787 7.88019 11.5499 7.97501 11.5497 8.07204C11.5508 8.08913 11.5508 8.10628 11.5497 8.12338C11.7907 8.28808 11.9886 8.50802 12.1265 8.76473C12.2645 9.02143 12.3386 9.30739 12.3426 9.59855C12.3414 9.69788 12.3321 9.79694 12.3148 9.89477C12.2499 10.3143 12.0365 10.6968 11.7131 10.9731C11.3897 11.2495 10.9777 11.4014 10.5517 11.4014C10.1256 11.4014 9.71366 11.2495 9.39027 10.9731C9.06688 10.6968 8.85343 10.3143 8.78854 9.89477C8.77127 9.79694 8.76199 9.69788 8.76079 9.59855C8.76389 9.32458 8.82822 9.05474 8.9491 8.80864C8.84884 8.80163 8.755 8.75694 8.68655 8.68362C8.61811 8.61029 8.58017 8.51381 8.58042 8.41368C8.58075 8.37781 8.56727 8.34318 8.54275 8.31691C8.35096 8.61503 8.22964 8.95266 8.18795 9.30431H7.81926C7.75601 8.72347 7.47963 8.18639 7.04317 7.79618C6.60671 7.40597 6.04096 7.19014 5.45453 7.19014C4.8681 7.19014 4.30234 7.40597 3.86589 7.79618C3.42943 8.18639 3.15304 8.72347 3.0898 9.30431H2.67949L3.62498 5.41001C3.63688 5.32904 3.78554 4.59244 4.74293 4.59244C4.82178 4.59244 4.89741 4.56123 4.95317 4.50568C5.00893 4.45013 5.04025 4.37478 5.04025 4.29622C5.04025 4.21766 5.00893 4.14231 4.95317 4.08676C4.89741 4.03121 4.82178 4 4.74293 4C3.55362 4 3.10962 4.84916 3.03826 5.31324L2.01149 9.52944C1.99879 9.57235 1.99658 9.61767 2.00504 9.6616C2.01351 9.70554 2.0324 9.74682 2.06014 9.782C2.08789 9.81718 2.12368 9.84523 2.16452 9.86382C2.20537 9.88241 2.25009 9.89099 2.29494 9.88885H3.08781C3.10394 10.011 3.12912 10.1318 3.16314 10.2502C3.17566 10.2286 3.18248 10.2041 3.18296 10.1791C3.18296 10.0744 3.22472 9.97394 3.29907 9.89987C3.37342 9.8258 3.47425 9.78419 3.57939 9.78419C3.61158 9.78461 3.64357 9.78926 3.67454 9.79801C3.6659 9.72922 3.66127 9.65998 3.66066 9.59066C3.66119 9.49138 3.66981 9.39232 3.68643 9.29444C3.74993 8.87357 3.96291 8.48939 4.28665 8.21171C4.61038 7.93404 5.02338 7.78133 5.45056 7.78133C5.87774 7.78133 6.29074 7.93404 6.61448 8.21171C6.93822 8.48939 7.1512 8.87357 7.2147 9.29444C7.23132 9.39232 7.23994 9.49138 7.24047 9.59066C7.23735 10.0611 7.0484 10.5113 6.71451 10.844C6.38063 11.1766 5.92868 11.3649 5.45651 11.368C5.07006 11.3733 4.69235 11.2534 4.38019 11.0263C4.30866 11.0882 4.21725 11.1226 4.12251 11.1231C4.08342 11.1236 4.04612 11.1395 4.01867 11.1672C3.99121 11.1949 3.97582 11.2323 3.97583 11.2712C3.97529 11.3264 3.96313 11.3809 3.94015 11.4312C4.36421 11.7813 4.89781 11.9727 5.44858 11.9723C6.03038 11.9748 6.59292 11.7647 7.02978 11.3819C7.46664 10.9991 7.74751 10.47 7.81926 9.89477H8.18002C8.24531 10.4738 8.52244 11.0086 8.95848 11.397C9.39452 11.7853 9.95889 12 10.5438 12C11.1286 12 11.693 11.7853 12.129 11.397C12.5651 11.0086 12.8422 10.4738 12.9075 9.89477H13.7004C13.7462 9.89807 13.7921 9.89006 13.8341 9.87145C13.8761 9.85284 13.9128 9.82421 13.9411 9.78808C13.9693 9.75196 13.9881 9.70946 13.9959 9.66434C14.0037 9.61923 14.0003 9.57289 13.9858 9.52944Z" fill="black"/>
</symbol><symbol id="favicon32" viewBox="0 0 24 16">
<path d="M23.9716 11.0589L21.922 2.62648C21.7793 1.69833 20.8913 0 18.5127 0C18.355 0 18.2037 0.0624176 18.0922 0.173522C17.9807 0.284626 17.918 0.435315 17.918 0.59244C17.918 0.749564 17.9807 0.900254 18.0922 1.01136C18.2037 1.12246 18.355 1.18488 18.5127 1.18488C20.4354 1.18488 20.7208 2.65808 20.7486 2.82001L22.6356 10.6007H21.8071C21.7214 9.92198 21.4892 9.26977 21.1265 8.6889C20.7638 8.10803 20.2792 7.61226 19.706 7.23566C19.5265 7.31095 19.3732 7.43726 19.2653 7.59882C19.1574 7.76038 19.0997 7.95003 19.0994 8.14407C19.1016 8.17827 19.1016 8.21256 19.0994 8.24676C19.5815 8.57615 19.9771 9.01605 20.2531 9.52946C20.529 10.0429 20.6772 10.6148 20.6852 11.1971C20.6828 11.3958 20.6642 11.5939 20.6297 11.7895C20.4999 12.6286 20.073 13.3936 19.4262 13.9463C18.7794 14.499 17.9555 14.8028 17.1034 14.8028C16.2513 14.8028 15.4273 14.499 14.7805 13.9463C14.1338 13.3936 13.7069 12.6286 13.5771 11.7895C13.5425 11.5939 13.524 11.3958 13.5216 11.1971C13.5278 10.6492 13.6564 10.1095 13.8982 9.61727C13.6977 9.60325 13.51 9.51388 13.3731 9.36723C13.2362 9.22059 13.1603 9.02761 13.1608 8.82735C13.1615 8.75562 13.1345 8.68636 13.0855 8.63382C12.7019 9.23006 12.4593 9.90531 12.3759 10.6086H11.6385C11.512 9.44695 10.9593 8.37277 10.0863 7.59235C9.21343 6.81193 8.08191 6.38028 6.90906 6.38028C5.7362 6.38028 4.60469 6.81193 3.73177 7.59235C2.85886 8.37277 2.30609 9.44695 2.17959 10.6086H1.35897L3.24996 2.82001C3.27375 2.65808 3.57108 1.18488 5.48586 1.18488C5.64357 1.18488 5.79482 1.12246 5.90634 1.01136C6.01786 0.900254 6.08051 0.749564 6.08051 0.59244C6.08051 0.435315 6.01786 0.284626 5.90634 0.173522C5.79482 0.0624176 5.64357 0 5.48586 0C3.10725 0 2.21923 1.69833 2.07652 2.62648L0.0229859 11.0589C-0.00241625 11.1447 -0.00683829 11.2353 0.010089 11.3232C0.0270164 11.4111 0.0648017 11.4936 0.120289 11.564C0.175777 11.6344 0.247357 11.6905 0.32905 11.7276C0.410743 11.7648 0.500179 11.782 0.589887 11.7777H2.17563C2.20788 12.022 2.25824 12.2636 2.32627 12.5005C2.35131 12.4572 2.36495 12.4083 2.36591 12.3583C2.36591 12.1488 2.44945 11.9479 2.59814 11.7997C2.74683 11.6516 2.9485 11.5684 3.15878 11.5684C3.22316 11.5692 3.28714 11.5785 3.34907 11.596C3.3318 11.4584 3.32254 11.32 3.32132 11.1813C3.32238 10.9828 3.33962 10.7846 3.37286 10.5889C3.49987 9.74715 3.92582 8.97877 4.5733 8.42343C5.22077 7.86809 6.04677 7.56265 6.90113 7.56265C7.75549 7.56265 8.58149 7.86809 9.22896 8.42343C9.87643 8.97877 10.3024 9.74715 10.4294 10.5889C10.4626 10.7846 10.4799 10.9828 10.4809 11.1813C10.4747 12.1221 10.0968 13.0227 9.42903 13.688C8.76126 14.3532 7.85737 14.7297 6.91302 14.7359C6.14013 14.7465 5.38469 14.5067 4.76038 14.0527C4.61732 14.1765 4.4345 14.2451 4.24502 14.2462C4.16685 14.2472 4.09224 14.2789 4.03733 14.3343C3.98243 14.3898 3.95165 14.4645 3.95165 14.5424C3.95058 14.6529 3.92627 14.7618 3.8803 14.8623C4.72842 15.5626 5.79562 15.9455 6.89716 15.9445C8.06077 15.9495 9.18585 15.5294 10.0596 14.7638C10.9333 13.9981 11.495 12.94 11.6385 11.7895H12.36C12.4906 12.9477 13.0449 14.0172 13.917 14.7939C14.789 15.5706 15.9178 16 17.0875 16C18.2573 16 19.386 15.5706 20.2581 14.7939C21.1301 14.0172 21.6844 12.9477 21.815 11.7895H23.4007C23.4924 11.7961 23.5843 11.7801 23.6682 11.7429C23.7522 11.7057 23.8257 11.6484 23.8821 11.5762C23.9386 11.5039 23.9763 11.4189 23.9919 11.3287C24.0075 11.2385 24.0005 11.1458 23.9716 11.0589Z" fill="black"/>
</symbol><symbol id="footer-logotype-pink" viewBox="0 0 145 40">
<path d="M71.005 18.5486C71.0049 18.2125 71.1358 17.8898 71.3697 17.6494C71.6037 17.409 71.922 17.2701 72.2568 17.2623H79.39C84.4469 17.2623 87.7751 19.9645 87.7751 24.3918V24.4516C87.7751 29.2977 83.7415 31.8105 78.9727 31.8105H73.5384V38.611C73.5539 38.7874 73.5328 38.9651 73.4762 39.1329C73.4196 39.3006 73.3289 39.4547 73.2097 39.5854C73.0906 39.716 72.9457 39.8204 72.7842 39.8918C72.6227 39.9631 72.4481 40 72.2717 40C72.0952 40 71.9207 39.9631 71.7592 39.8918C71.5977 39.8204 71.4527 39.716 71.3336 39.5854C71.2145 39.4547 71.1237 39.3006 71.0671 39.1329C71.0106 38.9651 70.9894 38.7874 71.005 38.611V18.5486ZM79.0721 29.5171C82.7778 29.5171 85.2119 27.5228 85.2119 24.5314V24.4716C85.2119 21.2608 82.8175 19.5956 79.2509 19.5956H73.588V29.4772L79.0721 29.5171Z" fill="#283645"/>
<path d="M92.5935 18.389C92.5779 18.2126 92.5991 18.0349 92.6556 17.8671C92.7122 17.6994 92.803 17.5452 92.9221 17.4146C93.0412 17.2839 93.1862 17.1796 93.3477 17.1082C93.5092 17.0369 93.6837 17 93.8602 17C94.0366 17 94.2112 17.0369 94.3727 17.1082C94.5342 17.1796 94.6791 17.2839 94.7982 17.4146C94.9174 17.5452 95.0081 17.6994 95.0647 17.8671C95.1213 18.0349 95.1425 18.2126 95.1269 18.389V38.611C95.1425 38.7874 95.1213 38.9651 95.0647 39.1329C95.0081 39.3006 94.9174 39.4548 94.7982 39.5854C94.6791 39.7161 94.5342 39.8204 94.3727 39.8918C94.2112 39.9631 94.0366 40 93.8602 40C93.6837 40 93.5092 39.9631 93.3477 39.8918C93.1862 39.8204 93.0412 39.7161 92.9221 39.5854C92.803 39.4548 92.7122 39.3006 92.6556 39.1329C92.5991 38.9651 92.5779 38.7874 92.5935 38.611V18.389Z" fill="#283645"/>
<path d="M101.674 18.419C101.682 18.0891 101.816 17.775 102.05 17.5426C102.283 17.3102 102.597 17.1776 102.926 17.1725H103.273C103.532 17.1778 103.784 17.2482 104.008 17.3771C104.232 17.5061 104.42 17.6894 104.555 17.9104L118.156 35.3104V18.3591C118.156 18.0312 118.286 17.7167 118.517 17.4848C118.748 17.2529 119.061 17.1227 119.388 17.1227C119.715 17.1227 120.028 17.2529 120.259 17.4848C120.49 17.7167 120.62 18.0312 120.62 18.3591V38.6508C120.625 38.8051 120.599 38.9589 120.544 39.1028C120.488 39.2467 120.403 39.3777 120.296 39.4878C120.188 39.5979 120.059 39.6848 119.916 39.7432C119.774 39.8016 119.621 39.8303 119.467 39.8275H119.338C119.074 39.8092 118.818 39.7294 118.591 39.5944C118.363 39.4593 118.17 39.2728 118.027 39.0497L104.118 21.2408V38.6508C104.116 38.9722 103.991 39.2805 103.769 39.5124C103.547 39.7442 103.246 39.882 102.926 39.8973C102.601 39.892 102.291 39.7581 102.064 39.5246C101.837 39.2911 101.711 38.9771 101.714 38.6508V18.419H101.674Z" fill="#283645"/>
<path d="M126.938 18.389C126.923 18.2126 126.944 18.0349 127.001 17.8671C127.057 17.6994 127.148 17.5452 127.267 17.4146C127.386 17.2839 127.531 17.1796 127.693 17.1082C127.854 17.0369 128.029 17 128.205 17C128.382 17 128.556 17.0369 128.718 17.1082C128.879 17.1796 129.024 17.2839 129.143 17.4146C129.262 17.5452 129.353 17.6994 129.41 17.8671C129.466 18.0349 129.487 18.2126 129.472 18.389V30.6837L142.228 17.5514C142.49 17.2797 142.845 17.1191 143.222 17.1027C143.547 17.1155 143.855 17.2528 144.082 17.4865C144.309 17.7202 144.439 18.0325 144.444 18.3591C144.437 18.529 144.396 18.6957 144.325 18.8498C144.253 19.0038 144.152 19.1421 144.026 19.2565L136.078 27.1539L144.652 37.6836C144.876 37.9441 145 38.2768 145 38.6209C144.996 38.7933 144.958 38.9633 144.889 39.121C144.819 39.2786 144.719 39.4209 144.594 39.5395C144.47 39.6582 144.323 39.7509 144.162 39.8123C144.002 39.8737 143.831 39.9026 143.659 39.8973C143.459 39.8891 143.264 39.8322 143.091 39.7314C142.918 39.6306 142.772 39.4891 142.665 39.3189L134.3 28.859L129.472 33.7051V38.591C129.472 38.7573 129.439 38.922 129.376 39.0756C129.312 39.2293 129.219 39.3689 129.102 39.4865C128.985 39.6041 128.846 39.6973 128.693 39.761C128.54 39.8246 128.376 39.8574 128.21 39.8574C128.044 39.8574 127.88 39.8246 127.727 39.761C127.574 39.6973 127.435 39.6041 127.318 39.4865C127.201 39.3689 127.108 39.2293 127.044 39.0756C126.981 38.922 126.948 38.7573 126.948 38.591V18.389H126.938Z" fill="#283645"/>
<path fill-rule="evenodd" clip-rule="evenodd" d="M53.8917 6.58616L58.9302 27.7312C59.0013 27.9491 59.0184 28.1815 58.98 28.4078C58.9417 28.6341 58.849 28.8472 58.7102 29.0284C58.5715 29.2096 58.3909 29.3532 58.1845 29.4465C57.978 29.5398 57.7522 29.58 57.5268 29.5635H53.5201C52.8298 35.3747 47.9494 39.8784 42.0315 39.8784C36.1136 39.8784 31.2332 35.3747 30.543 29.5635H28.5778C27.8869 35.442 22.9527 40 16.9685 40C10.9742 40 6.0335 35.4266 5.35571 29.5337H1.45014C1.22961 29.5445 1.00974 29.5014 0.808914 29.4082C0.608085 29.315 0.432119 29.1743 0.295711 28.9979C0.159304 28.8214 0.0664152 28.6144 0.0248022 28.3941C-0.0168108 28.1737 -0.00593994 27.9464 0.0565069 27.7312L5.10477 6.58616C5.45562 4.25872 7.63865 0 13.4861 0C13.8738 0 14.2456 0.156518 14.5197 0.435122C14.7939 0.713727 14.9479 1.0916 14.9479 1.4856C14.9479 1.87961 14.7939 2.25748 14.5197 2.53608C14.2456 2.81468 13.8738 2.9712 13.4861 2.9712C8.7789 2.9712 8.04797 6.6654 7.9895 7.07146L3.3408 26.6022H5.37467C6.12089 20.7847 11.0272 16.2918 16.9685 16.2918C22.9066 16.2918 27.8107 20.7798 28.5611 26.5926L30.5587 26.6017C31.3043 20.8518 36.1567 16.4134 42.0315 16.4134C47.9178 16.4134 52.7776 20.8691 53.5086 26.6353V26.5824H55.6459L51.007 7.07146C50.9387 6.6654 50.237 2.9712 45.5104 2.9712C45.1227 2.9712 44.7509 2.81468 44.4767 2.53608C44.2026 2.25748 44.0485 1.87961 44.0485 1.4856C44.0485 1.0916 44.2026 0.713727 44.4767 0.435122C44.7509 0.156518 45.1227 0 45.5104 0C51.3578 0 53.5408 4.25872 53.8917 6.58616ZM25.6722 29.5635C25.7448 29.1018 25.7825 28.6283 25.7825 28.1459C25.7825 27.6164 25.7371 27.0977 25.65 26.5935C24.9252 22.3982 21.3141 19.2097 16.9685 19.2097C12.6203 19.2097 9.00753 22.402 8.28571 26.601C8.19945 27.1028 8.15447 27.619 8.15447 28.1459C8.15447 28.6205 8.19096 29.0864 8.26125 29.541C8.92191 33.8136 12.5687 37.0821 16.9685 37.0821C21.3605 37.0821 25.0023 33.8251 25.6722 29.5635ZM50.6138 29.5635C50.6874 29.102 50.7256 28.6285 50.7256 28.1459C50.7256 23.2777 46.8331 19.3313 42.0315 19.3313C37.2299 19.3313 33.3374 23.2777 33.3374 28.1459C33.3374 28.6285 33.3756 29.102 33.4492 29.5635C34.118 33.7577 37.7058 36.9605 42.0315 36.9605C46.3572 36.9605 49.945 33.7577 50.6138 29.5635Z" fill="#D22856"/>
</symbol><symbol id="grey-background" viewBox="0 0 1200 715">
<path d="M0 100L1200 0V715H0V100Z" fill="#F2F2F2"/>
</symbol><symbol id="htmlacademy" viewBox="0 0 60 60"><path fill="#2E368F" d="M30.2 5h-.2l-19.7 2.1v36.2l19.7 11.7 19.7-11.7v-36.2l-19.5-2.1zm17 36.8l-17.2 10.2-17.2-10.2v-14.8l17.1 10.2v1.8l-11.7-7v1.8l11.8 7.1v1.9l-11.8-7v1.8l11.8 7 11.9-7.1v-7.6l5.3-3.2v15.1zm-.1-17l-4.7 2.8-2.2 1.3-10.3-6.1v1.8l8.8 5.3h-.1l-.2.1-1.3.7-7.3-4.3v1.8l5.8 3.4-1.4.9-4.3-2.6v1.8l2.9 1.7-2.9 1.7-17-10.1 17-10.2 17.2 10zm.1-1.8l-17.3-10.2-17.1 10.2v-13.6l17.2-1.8 17.2 1.8v13.6z"/></symbol><symbol id="like" viewBox="0 0 13 12">
<path d="M6.46867 12C6.3589 12.0014 6.25012 11.9798 6.14988 11.9367C6.04963 11.8935 5.96033 11.8298 5.88815 11.75C1.95926 7.42 1.03665 6.44 0.860416 6.17C0.307088 5.49497 0.00416162 4.66056 0 3.8C0.00441359 3.07425 0.223059 2.36473 0.63034 1.7545C1.03762 1.14428 1.61668 0.658598 2.29973 0.354328C2.98278 0.0500576 3.74155 -0.0602132 4.48721 0.036425C5.23287 0.133063 5.93456 0.432611 6.51014 0.9C7.22774 0.319491 8.13412 0.00090711 9.07066 0C10.1136 0.00264761 11.1129 0.404172 11.8494 1.11652C12.5859 1.82888 12.9995 2.79391 12.9995 3.8C13.014 4.67715 12.6845 5.5272 12.0769 6.18L7.03883 11.74C6.9678 11.8185 6.88016 11.8814 6.78182 11.9246C6.68348 11.9677 6.5767 11.99 6.46867 11.99V12ZM2.07329 5.28C2.29099 5.54 4.63381 8.12 6.46867 10.14L10.947 5.2C11.3073 4.81798 11.5005 4.3163 11.486 3.8C11.486 3.18205 11.2316 2.5894 10.7786 2.15244C10.3256 1.71548 9.71126 1.47 9.07066 1.47C8.69007 1.47297 8.31512 1.55909 7.97398 1.7219C7.63285 1.8847 7.33439 2.11996 7.10103 2.41C7.02566 2.49603 6.9321 2.56553 6.82661 2.61382C6.72113 2.66211 6.60615 2.68809 6.48941 2.69C6.37337 2.68847 6.25936 2.6605 6.15667 2.60836C6.05398 2.55622 5.96552 2.4814 5.89852 2.39C5.66784 2.10104 5.37087 1.86758 5.03093 1.70796C4.69099 1.54833 4.31732 1.46688 3.93926 1.47C3.48505 1.47534 3.04153 1.6036 2.65919 1.84016C2.27684 2.07673 1.97103 2.41211 1.77658 2.8081C1.58213 3.2041 1.50684 3.64481 1.5593 4.08006C1.61176 4.51531 1.78985 4.9276 2.07329 5.27V5.28Z" fill="#D22856"/>
</symbol><symbol id="twitter" viewBox="0 0 18 14">
<path d="M11.5641 0.168904C12.2458 -0.0461515 12.9837 -0.0560928 13.6719 0.140507C14.3602 0.337107 14.9633 0.730138 15.3947 1.26319C16.1053 1.05385 16.8055 0.815959 17.5263 0.606617C17.5164 0.925848 17.4299 1.23907 17.2732 1.52372C17.1165 1.80837 16.8935 2.05738 16.6201 2.2528C16.8726 2.27877 17.1281 2.25112 17.3673 2.17197C17.6064 2.09281 17.8228 1.96424 18 1.79606C17.901 2.20987 17.6999 2.59695 17.4123 2.92708C17.1247 3.2572 16.7585 3.52144 16.3421 3.69916C16.095 9.96988 12.9748 14.1662 5.65332 13.9949H5.14874C4.70595 13.9949 0.731121 13.5667 0 12.2441C1.75201 12.4899 3.53888 12.0976 4.98398 11.1498C3.95423 10.8643 2.13158 10.7026 1.82265 8.40934C2.2108 8.54337 2.6321 8.57306 3.03776 8.49498C1.76087 7.70519 0.339817 7.0391 0.422197 4.99327C0.819634 5.29882 1.3269 5.45507 1.84325 5.43098C1.10183 5.20261 -0.24714 2.30989 0.895881 0.825474C2.82151 2.54778 4.86041 4.17493 8.48512 4.3367C8.71167 2.20522 9.68993 0.777896 11.5641 0.168904Z" fill="#D22856"/>
</symbol><symbol id="youtube" viewBox="0 0 15 13">
<path d="M1.83356 12.8089C1.64633 12.9278 1.42471 12.9941 1.19626 12.9996C0.967817 13.0051 0.74263 12.9495 0.548717 12.8398C0.354804 12.7301 0.200724 12.571 0.105646 12.3824C0.010569 12.1938 -0.0213097 11.984 0.0139762 11.779V1.22097C-0.0213097 1.01605 0.010569 0.806234 0.105646 0.617628C0.200724 0.429021 0.354804 0.269949 0.548717 0.1602C0.74263 0.0504516 0.967817 -0.00512927 1.19626 0.000372265C1.42471 0.0058738 1.64633 0.0722149 1.83356 0.191142L14.2333 5.69284C15.2556 6.13817 15.2556 6.86183 14.2333 7.30716L1.83356 12.8089Z" fill="#D22856"/>
</symbol></svg>